# Blender v2.76 (sub 0) OBJ File: ''
# www.blender.org
mtllib hthingcolission.mtl
o Plane.001
v -11.806767 0.000000 11.073681
v 11.806767 0.000000 11.073681
v -11.806767 0.000000 -8.926319
v 11.806767 0.000000 -8.926319
v -11.950294 -0.684492 -9.047883
v -11.950294 -0.684492 11.195245
v 11.950294 -0.684492 11.195245
v 11.950294 -0.684492 -9.047883
vn 0.000000 -1.000000 0.000000
vn 0.000000 1.000000 0.000000
vn -0.978700 -0.205200 0.000000
vn 0.978700 -0.205200 0.000000
vn 0.000000 -0.174900 0.984600
vn 0.000000 -0.174900 -0.984600
usemtl None
s off
f 1//1 3//1 4//1 2//1
f 6//2 7//2 8//2 5//2
f 2//3 4//3 8//3 7//3
f 3//4 1//4 6//4 5//4
f 4//5 3//5 5//5 8//5
f 1//6 2//6 7//6 6//6
o Plane
v -10.000000 0.000000 10.000000
v 10.000000 0.000000 10.000000
v -10.000000 0.000000 0.000000
v 0.000000 0.000000 10.000000
v 10.000000 0.000000 0.000000
v 0.000000 0.000000 0.000000
v -10.000000 0.000000 5.000000
v 5.000000 0.000000 10.000000
v 10.000000 0.000000 -5.000000
v -10.000000 0.000000 -5.000000
v -5.000000 0.000000 10.000000
v 10.000000 0.000000 5.000000
v 0.000000 0.000000 -5.000000
v 0.000000 0.000000 5.000000
v -5.000000 0.000000 0.000000
v 5.000000 0.000000 0.000000
v 5.000000 0.000000 5.000000
v -5.000000 0.000000 5.000000
v -5.000000 0.000000 -5.000000
v 5.000000 0.000000 -5.000000
v -10.000000 0.000000 7.500000
v 7.500000 0.000000 10.000000
v 10.000000 0.000000 -7.500000
v -10.000000 0.000000 -2.500000
v -2.500000 0.000000 10.000000
v 10.000000 0.000000 2.500000
v 0.000000 0.000000 -7.500000
v 0.000000 0.000000 2.500000
v -7.500000 0.000000 0.000000
v 2.500000 0.000000 0.000000
v -10.000000 0.000000 2.500000
v 2.500000 0.000000 10.000000
v 10.000000 0.000000 -2.500000
v -10.000000 0.000000 -7.500000
v -7.500000 0.000000 10.000000
v 10.000000 0.000000 7.500000
v 0.000000 0.000000 -2.500000
v 0.000000 0.000000 7.500000
v -2.500000 0.000000 0.000000
v 7.500000 0.000000 0.000000
v 5.000000 0.000000 2.500000
v 5.000000 0.000000 7.500000
v 2.500000 0.000000 5.000000
v 7.500000 0.000000 5.000000
v -5.000000 0.000000 2.500000
v -5.000000 0.000000 7.500000
v -7.500000 0.000000 5.000000
v -2.500000 0.000000 5.000000
v -5.000000 0.000000 -7.500000
v -5.000000 0.000000 -2.500000
v -7.500000 0.000000 -5.000000
v -2.500000 0.000000 -5.000000
v 5.000000 0.000000 -7.500000
v 5.000000 0.000000 -2.500000
v 2.500000 0.000000 -5.000000
v 7.500000 0.000000 -5.000000
v 7.500000 0.000000 -2.500000
v 2.500000 0.000000 -2.500000
v 2.500000 0.000000 -7.500000
v -2.500000 0.000000 -2.500000
v -7.500000 0.000000 -2.500000
v -7.500000 0.000000 -7.500000
v -2.500000 0.000000 7.500000
v -7.500000 0.000000 7.500000
v -7.500000 0.000000 2.500000
v 7.500000 0.000000 7.500000
v 2.500000 0.000000 7.500000
v 2.500000 0.000000 2.500000
v 7.500000 0.000000 2.500000
v -2.500000 0.000000 2.500000
v -2.500000 0.000000 -7.500000
v 7.500000 0.000000 -7.500000
v -10.000000 0.155911 7.500000
v -10.000000 0.155911 10.000000
v 7.500000 0.155911 10.000000
v 10.000000 0.155911 10.000000
v -10.000000 0.155911 -2.500000
v -10.000000 0.155911 0.000000
v 0.000000 0.155911 2.500000
v 0.000000 0.155911 0.000000
v -7.500000 0.155911 0.000000
v 2.500000 0.155911 0.000000
v -10.000000 0.155911 2.500000
v -10.000000 0.155911 5.000000
v 10.000000 0.155911 -2.500000
v 10.000000 0.155911 -5.000000
v -10.000000 0.155911 -7.500000
v -10.000000 0.155911 -5.000000
v 10.000000 0.155911 7.500000
v 10.000000 0.155911 5.000000
v 0.000000 0.155911 -2.500000
v 0.000000 0.155911 -5.000000
v 0.000000 0.155911 7.500000
v 0.000000 0.155911 5.000000
v 5.000000 0.155911 7.500000
v 5.000000 0.155911 5.000000
v 2.500000 0.155911 5.000000
v 7.500000 0.155911 5.000000
v -5.000000 0.155911 7.500000
v -5.000000 0.155911 5.000000
v -7.500000 0.155911 5.000000
v -2.500000 0.155911 5.000000
v -5.000000 0.155911 -2.500000
v -5.000000 0.155911 -5.000000
v -7.500000 0.155911 -5.000000
v -2.500000 0.155911 -5.000000
v 5.000000 0.155911 -2.500000
v 5.000000 0.155911 -5.000000
v 2.500000 0.155911 -5.000000
v 7.500000 0.155911 -5.000000
v 10.000000 0.155911 -7.500000
v 10.000000 0.155911 2.500000
v 0.000000 0.155911 -7.500000
v 0.000000 0.155911 10.000000
v 2.500000 0.155911 10.000000
v 10.000000 0.155911 0.000000
v -7.500000 0.155911 10.000000
v 7.500000 0.155911 0.000000
v 7.500000 0.155911 -2.500000
v 2.500000 0.155911 -2.500000
v 2.500000 0.155911 -7.500000
v -2.500000 0.155911 -2.500000
v -7.500000 0.155911 -2.500000
v -7.500000 0.155911 -7.500000
v -2.500000 0.155911 7.500000
v -7.500000 0.155911 7.500000
v -7.500000 0.155911 2.500000
v 7.500000 0.155911 7.500000
v 2.500000 0.155911 7.500000
v 2.500000 0.155911 2.500000
v 7.500000 0.155911 2.500000
v 7.500000 0.155911 -7.500000
v -11.841163 -0.257254 11.611017
v 11.841163 -0.257254 11.611017
v -11.841163 -0.257254 -0.230145
v 0.000000 -0.257254 11.611017
v 11.841163 -0.257254 -0.230145
v -11.841163 -0.257254 5.690436
v 5.920581 -0.257254 11.611017
v 11.841163 -0.257254 -6.150727
v -11.841163 -0.257254 -6.150727
v -5.920581 -0.257254 11.611017
v 11.841163 -0.257254 5.690436
v -11.841163 -0.257254 8.650726
v 8.880872 -0.257254 11.611017
v 11.841163 -0.257254 -9.111017
v -11.841163 -0.257254 -3.190436
v -2.960291 -0.257254 11.611017
v 11.841163 -0.257254 2.730145
v 0.000000 -0.257254 -9.111017
v -11.841163 -0.257254 2.730145
v 2.960291 -0.257254 11.611017
v 11.841163 -0.257254 -3.190436
v -11.841163 -0.257254 -9.111017
v -8.880872 -0.257254 11.611017
v 11.841163 -0.257254 8.650726
v -5.920581 -0.257254 -9.111017
v 5.920581 -0.257254 -9.111017
v 2.960291 -0.257254 -9.111017
v -8.880872 -0.257254 -9.111017
v -2.960291 -0.257254 -9.111017
v 8.880872 -0.257254 -9.111017
vt 0.250000 0.250000
vt 1.500000 0.250000
vt 1.500000 1.500000
vt 0.250000 1.500000
vt 0.750000 0.250000
vt 2.000000 0.250000
vt 2.000000 1.500000
vt 0.750000 1.500000
vt 0.000000 0.500000
vt 1.250000 0.500000
vt 1.250000 1.750000
vt 0.000000 1.750000
vt 0.750000 0.500000
vt 2.000000 0.500000
vt 2.000000 1.750000
vt 0.750000 1.750000
vt 0.750000 0.000000
vt 2.000000 0.000000
vt 2.000000 1.250000
vt 0.750000 1.250000
vt 0.250000 0.500000
vt 1.500000 0.500000
vt 1.500000 1.750000
vt 0.250000 1.750000
vt 0.500000 0.250000
vt 1.750000 0.250000
vt 1.750000 1.500000
vt 0.500000 1.500000
vt 0.000000 0.250000
vt 1.250000 0.250000
vt 1.250000 1.500000
vt 0.000000 1.500000
vt 0.000000 0.000000
vt 1.250000 0.000000
vt 1.250000 1.250000
vt 0.000000 1.250000
vt 0.250000 0.000000
vt 1.500000 0.000000
vt 1.500000 1.250000
vt 0.250000 1.250000
vt -1.250000 0.500000
vt -1.940436 -0.305509
vt -0.460291 -0.305509
vt 0.500000 0.000000
vt 0.500000 -1.250000
vt 1.420581 -1.825363
vt 1.420581 -0.345218
vt 0.500000 0.500000
vt 0.500000 1.750000
vt -0.420581 1.174637
vt -0.420581 -0.305509
vt -0.750000 0.500000
vt -0.059564 -0.305509
vt 1.420581 -0.305509
vt 1.019855 1.055509
vt -0.460291 1.055509
vt -0.420581 1.615073
vt -0.420581 0.134927
vt -0.420581 2.095218
vt -0.420581 0.615073
vt 1.500000 1.055509
vt 0.019855 1.055509
vt -0.500000 0.500000
vt -0.500000 -0.305509
vt 0.980145 -0.305509
vt -0.980145 -0.305509
vt 0.500000 -0.305509
vt 0.500000 0.750000
vt 0.500000 -0.500000
vt 1.420581 -0.384927
vt 1.420581 1.095218
vt 0.500000 -0.750000
vt 1.420581 -0.865073
vt 1.420581 0.615073
vt 1.940436 1.055509
vt 0.460291 1.055509
vt -1.420581 -0.305509
vt 0.059564 -0.305509
vt 0.500000 2.000000
vt -0.420581 1.654782
vt -0.420581 0.174637
vt 2.420581 1.055509
vt 0.940436 1.055509
vt 1.420581 -1.305509
vt 1.420581 0.174637
vt -1.000000 0.500000
vt -0.539709 -0.305509
vt 0.940436 -0.305509
vt 1.059564 1.055509
vt -0.420581 1.055509
vt 0.500000 -1.000000
vt 1.420581 -0.424637
vt 1.420581 1.055509
vt 1.539709 1.055509
vt 0.059564 1.055509
vt 0.500000 1.250000
vt -0.420581 1.134927
vt -0.420581 -0.345218
vt -0.420581 2.575363
vt -0.420581 1.095218
vt 1.980145 1.055509
vt 0.500000 1.055509
vt -1.019855 -0.305509
vt 0.460291 -0.305509
vt -1.460291 -0.305509
vt 0.019855 -0.305509
vt 2.460291 1.055509
vt 0.980145 1.055509
vt 1.420581 -0.904782
vt 1.420581 0.575363
vt 1.420581 -1.345218
vt 1.420581 0.134927
vt -0.420581 2.055509
vt -0.420581 0.575363
vt 1.750000 0.500000
vt 1.750000 0.577956
vt 0.500000 0.577956
vt -0.500000 0.577956
vt 0.750000 0.577956
vt 1.250000 0.577956
vt 0.000000 0.577956
vt 1.500000 0.577956
vt 0.250000 0.577956
vt -1.000000 0.577956
vt -0.750000 0.577956
vt -1.250000 0.577956
vt 2.000000 0.577956
vt 0.750000 0.750000
vt 2.000000 0.750000
vt 2.000000 2.000000
vt 0.750000 2.000000
vt 0.250000 0.750000
vt 1.500000 0.750000
vt 1.500000 2.000000
vt 0.250000 2.000000
vt 0.000000 0.750000
vt 1.250000 0.750000
vt 1.250000 2.000000
vt 0.000000 2.000000
vt 1.750000 0.750000
vt 1.750000 2.000000
vt 1.750000 1.750000
vt 1.750000 0.000000
vt 1.750000 1.250000
vn 0.000000 1.000000 0.000000
vn 0.000000 0.987500 0.157700
vn 0.138400 0.990400 0.000000
vn -0.138400 0.990400 0.000000
vn 0.000000 0.987500 -0.157700
vn 1.000000 0.000000 0.000000
vn -1.000000 0.000000 0.000000
vn 0.000000 0.000000 1.000000
vn 0.000000 0.000000 -1.000000
usemtl stone
s off
f 78/1/7 36/2/7 14/3/7 47/4/7
f 77/1/7 34/2/7 13/3/7 48/4/7
f 76/5/7 49/6/7 24/7/7 38/8/7
f 73/5/7 53/6/7 23/7/7 37/8/7
f 24/9/7 48/10/7 65/11/7 62/12/7
f 38/13/7 24/14/7 62/15/7 66/16/7
f 63/17/7 28/18/7 61/19/7 67/20/7
f 23/9/7 47/10/7 68/11/7 58/12/7
f 47/21/7 14/22/7 45/23/7 68/24/7
f 37/13/7 23/14/7 58/15/7 69/16/7
f 59/17/7 27/18/7 57/19/7 70/20/7
f 19/9/7 33/10/7 71/11/7 54/12/7
f 33/21/7 12/22/7 46/23/7 71/24/7
f 43/13/7 19/14/7 54/15/7 72/16/7
f 39/25/7 73/26/7 37/27/7 11/28/7
f 55/17/7 26/18/7 53/19/7 73/20/7
f 16/9/7 30/10/7 74/11/7 50/12/7
f 40/13/7 16/14/7 50/15/7 75/16/7
f 51/17/7 25/18/7 49/19/7 76/20/7
f 49/29/7 77/30/7 48/31/7 24/32/7
f 25/33/7 52/34/7 77/35/7 49/36/7
f 53/29/7 78/30/7 47/31/7 23/32/7
f 26/33/7 56/34/7 78/35/7 53/36/7
f 56/37/7 22/38/7 36/39/7 78/40/7
f 27/33/7 60/34/7 79/35/7 57/36/7
f 60/37/7 21/38/7 35/39/7 79/40/7
f 28/33/7 64/34/7 80/35/7 61/36/7
f 19/9/8 43/41/8 163/42/8 150/43/8
f 20/44/9 44/45/9 164/46/9 151/47/9
f 9/48/10 29/49/10 152/50/10 141/51/10
f 10/48/8 30/52/8 153/53/8 142/54/8
f 57/29/11 79/30/11 169/55/11 165/56/11
f 39/25/10 11/28/10 143/57/10 159/58/10
f 11/48/10 32/49/10 155/59/10 143/60/10
f 79/1/11 35/2/11 158/61/11 169/62/11
f 40/13/8 12/63/8 144/64/8 160/65/8
f 12/48/8 33/52/8 156/66/8 144/67/8
f 41/68/9 13/69/9 145/70/9 161/71/9
f 13/48/9 34/72/9 157/73/9 145/74/9
f 61/29/11 80/30/11 170/75/11 166/76/11
f 43/13/8 9/63/8 141/77/8 163/78/8
f 29/68/10 15/79/10 146/80/10 152/81/10
f 80/1/11 31/2/11 154/82/11 170/83/11
f 44/68/9 10/69/9 142/84/9 164/85/9
f 30/21/8 16/86/8 147/87/8 153/88/8
f 42/25/11 70/26/11 168/89/11 162/90/11
f 31/25/9 17/91/9 148/92/9 154/93/9
f 70/5/11 57/6/11 165/94/11 168/95/11
f 15/44/10 39/96/10 159/97/10 146/98/10
f 32/68/10 18/79/10 149/99/10 155/100/10
f 35/25/11 67/26/11 167/101/11 158/102/11
f 16/9/8 40/41/8 160/103/8 147/104/8
f 33/21/8 19/86/8 150/105/8 156/106/8
f 67/5/11 61/6/11 166/107/11 167/108/11
f 17/44/9 41/45/9 161/109/9 148/110/9
f 34/25/9 20/91/9 151/111/9 157/112/9
f 18/44/10 42/96/10 162/113/10 149/114/10
usemtl grass
f 43/48/12 72/115/12 134/116/12 125/117/12
f 32/13/13 11/63/13 86/118/13 85/119/13
f 62/9/14 65/10/14 127/120/14 115/121/14
f 65/13/13 48/63/13 126/118/13 127/119/13
f 71/21/14 46/22/14 101/122/14 133/123/14
f 13/48/12 41/115/12 93/116/12 124/117/12
f 54/9/14 71/10/14 133/120/14 107/121/14
f 30/21/14 10/22/14 84/122/14 83/123/14
f 52/21/15 25/86/15 104/124/15 106/123/15
f 12/48/14 40/115/14 123/116/14 122/117/14
f 29/13/13 9/63/13 82/118/13 81/119/13
f 34/48/15 77/52/15 139/125/15 120/117/15
f 28/9/15 63/41/15 117/126/15 116/121/15
f 77/21/13 52/86/13 106/124/13 139/123/13
f 70/13/15 42/63/15 95/118/15 132/119/15
f 36/21/13 22/86/13 102/124/13 87/123/13
f 21/48/15 60/52/15 114/125/15 100/117/15
f 59/9/12 70/10/12 132/120/12 113/121/12
f 35/21/13 21/86/13 100/124/13 121/123/13
f 27/9/15 59/41/15 113/126/15 112/121/15
f 69/13/14 58/14/14 111/127/14 131/119/14
f 51/9/12 76/10/12 138/120/12 105/121/12
f 20/9/12 34/10/12 120/120/12 98/121/12
f 76/21/12 38/22/12 90/122/12 138/123/12
f 22/48/15 56/52/15 110/125/15 102/117/15
f 37/48/12 69/115/12 131/116/12 89/117/12
f 75/13/14 50/14/14 103/127/14 137/119/14
f 44/13/12 20/14/12 98/127/12 97/119/12
f 18/9/13 32/41/13 85/126/13 96/121/13
f 137/128/7 103/129/7 104/130/7 105/131/7
f 136/132/7 97/133/7 98/134/7 106/135/7
f 134/128/7 107/129/7 108/130/7 109/131/7
f 133/132/7 101/133/7 102/134/7 110/135/7
f 131/128/7 111/129/7 112/130/7 113/131/7
f 130/132/7 99/133/7 100/134/7 114/135/7
f 128/128/7 115/129/7 116/130/7 117/131/7
f 127/132/7 93/133/7 94/134/7 118/135/7
f 115/136/7 127/137/7 118/138/7 116/139/7
f 126/21/7 124/22/7 93/23/7 127/24/7
f 99/68/7 128/140/7 117/141/7 100/79/7
f 88/48/7 90/115/7 128/142/7 99/49/7
f 100/44/7 117/143/7 129/144/7 121/96/7
f 111/136/7 130/137/7 114/138/7 112/139/7
f 85/68/7 131/140/7 113/141/7 96/79/7
f 86/48/7 89/115/7 131/142/7 85/49/7
f 96/44/7 113/143/7 132/144/7 95/96/7
f 107/136/7 133/137/7 110/138/7 108/139/7
f 81/68/7 134/140/7 109/141/7 92/79/7
f 82/48/7 125/115/7 134/142/7 81/49/7
f 92/44/7 109/143/7 135/144/7 91/96/7
f 103/136/7 136/137/7 106/138/7 104/139/7
f 83/21/7 84/22/7 97/23/7 136/24/7
f 101/68/7 137/140/7 105/141/7 102/79/7
f 122/48/7 123/115/7 137/142/7 101/49/7
f 87/25/7 138/26/7 90/27/7 88/28/7
f 102/44/7 105/143/7 138/144/7 87/96/7
f 106/37/7 98/38/7 120/39/7 139/40/7
f 118/37/7 94/38/7 119/39/7 140/40/7
f 9/48/14 43/115/14 125/116/14 82/117/14
f 56/21/15 26/86/15 108/124/15 110/123/15
f 10/48/12 44/115/12 97/116/12 84/117/12
f 72/13/14 54/14/14 107/127/14 134/119/14
f 38/48/12 66/115/12 128/116/12 90/117/12
f 45/13/13 14/63/13 88/118/13 99/119/13
f 55/9/12 73/10/12 135/120/12 109/121/12
f 66/13/14 62/14/14 115/127/14 128/119/14
f 46/13/13 12/63/13 122/118/13 101/119/13
f 60/21/15 27/86/15 112/124/15 114/123/15
f 14/48/13 36/52/13 87/125/13 88/117/13
f 73/13/15 39/63/15 91/118/15 135/119/15
f 80/21/13 64/86/13 118/124/13 140/123/13
f 11/48/14 37/115/14 89/116/14 86/117/14
f 63/9/12 67/10/12 129/120/12 117/121/12
f 48/21/14 13/22/14 124/122/14 126/123/14
f 67/13/15 35/63/15 121/118/15 129/119/15
f 31/48/15 80/52/15 140/125/15 119/117/15
f 39/21/13 15/86/13 92/124/13 91/123/13
f 74/13/13 30/63/13 83/118/13 136/119/13
f 64/21/15 28/86/15 116/124/15 118/123/15
f 50/9/14 74/10/14 136/120/14 103/121/14
f 25/9/15 51/41/15 105/126/15 104/121/15
f 15/9/13 29/41/13 81/126/13 92/121/13
f 41/13/12 17/14/12 94/127/12 93/119/12
f 58/9/14 68/10/14 130/120/14 111/121/14
f 17/9/12 31/10/12 119/120/12 94/121/12
f 42/21/13 18/86/13 96/124/13 95/123/13
f 40/48/12 75/115/12 137/116/12 123/117/12
f 68/21/14 45/22/14 99/122/14 130/123/14
f 26/9/15 55/41/15 109/126/15 108/121/15
