# Blender v2.77 (sub 0) OBJ File: 'racket.blend'
# www.blender.org
mtllib racketcol.mtl
o Cube.001
v -0.091377 -0.086291 2.174974
v -0.091377 0.086291 2.174974
v -0.091377 -0.086291 0.844594
v -0.091377 0.086291 0.844594
v 0.127431 -0.086291 2.174974
v 0.127431 0.086291 2.174974
v 0.127431 -0.086291 0.844594
v 0.127431 0.086291 0.844594
vn -1.0000 0.0000 0.0000
vn 0.0000 0.0000 -1.0000
vn 1.0000 0.0000 0.0000
vn 0.0000 0.0000 1.0000
vn 0.0000 -1.0000 0.0000
vn 0.0000 1.0000 0.0000
usemtl None
s off
f 2//1 4//1 3//1 1//1
f 4//2 8//2 7//2 3//2
f 8//3 6//3 5//3 7//3
f 6//4 2//4 1//4 5//4
f 1//5 3//5 7//5 5//5
f 6//6 8//6 4//6 2//6
o Cube
v -0.476275 -0.093130 0.709600
v -0.476275 0.093130 0.709600
v -0.476275 -0.093130 -0.654498
v -0.476275 0.093130 -0.654498
v 0.486240 -0.093130 0.709600
v 0.486240 0.093130 0.709600
v 0.486240 -0.093130 -0.654498
v 0.486240 0.093130 -0.654498
v -0.667073 0.093130 0.027551
v -0.667073 -0.093130 0.027551
v 0.677037 0.093130 0.027551
v 0.677037 -0.093130 0.027551
v 0.004982 0.093130 -0.881700
v 0.004982 -0.093130 -0.881700
v 0.004982 0.093130 0.936802
v 0.004982 -0.093130 0.936802
v 0.004982 0.093130 0.027551
v 0.004982 -0.093130 0.027551
vn -0.9630 0.0000 -0.2694
vn 0.4269 0.0000 -0.9043
vn 0.9630 0.0000 0.2694
vn -0.4269 0.0000 0.9043
vn 0.0000 -1.0000 0.0000
vn 0.0000 1.0000 0.0000
vn 0.9630 0.0000 -0.2694
vn -0.9630 0.0000 0.2694
vn 0.4269 0.0000 0.9043
vn -0.4269 0.0000 -0.9043
usemtl None
s off
f 17//7 12//7 11//7 18//7
f 21//8 16//8 15//8 22//8
f 19//9 14//9 13//9 20//9
f 23//10 10//10 9//10 24//10
f 26//11 22//11 15//11 20//11
f 25//12 21//12 12//12 17//12
f 23//12 25//12 17//12 10//12
f 24//11 26//11 20//11 13//11
f 16//13 19//13 20//13 15//13
f 10//14 17//14 18//14 9//14
f 9//11 18//11 26//11 24//11
f 14//12 19//12 25//12 23//12
f 19//12 16//12 21//12 25//12
f 18//11 11//11 22//11 26//11
f 14//15 23//15 24//15 13//15
f 12//16 21//16 22//16 11//16
